<svg version="1.1" xmlns="http://www.w3.org/2000/svg" viewBox="0 0 1698.9938696372512 701.0744008428617" width="3397.9877392745025" height="1402.1488016857234">
  <!-- svg-source:excalidraw -->
  
  <defs>
    <style class="style-fonts">
      @font-face {
        font-family: "Virgil";
        src: url("https://excalidraw.com/Virgil.woff2");
      }
      @font-face {
        font-family: "Cascadia";
        src: url("https://excalidraw.com/Cascadia.woff2");
      }
    </style>
  </defs>
  <rect x="0" y="0" width="1698.9938696372512" height="701.0744008428617" fill="#ffffff"></rect><g stroke-opacity="0.8" fill-opacity="0.8" stroke-linecap="round" transform="translate(177.02556612136559 118.40404652227136) rotate(0 118.09829605567734 41.578363336271295)"><path d="M20.79 0 L215.41 0 L224.5 1.3 L231 5.2 L234.9 11.69 L235.87 15.92 L236.2 62.37 L234.9 71.46 L233.27 75.04 L228.08 80.23 L224.5 81.86 L215.41 83.16 L20.79 83.16 L11.69 81.86 L5.2 77.96 L1.3 71.46 L0.32 67.24 L0.32 15.92 L1.3 11.69 L5.2 5.2 L11.69 1.3 L20.79 0" stroke="none" stroke-width="0" fill="#228be6"></path><path d="M20.79 0 M20.79 0 C77.32 0, 133.86 0, 215.41 0 M20.79 0 C73.98 0, 127.18 0, 215.41 0 M215.41 0 C229.27 0, 236.2 6.93, 236.2 20.79 M215.41 0 C229.27 0, 236.2 6.93, 236.2 20.79 M236.2 20.79 C236.2 30.81, 236.2 40.82, 236.2 62.37 M236.2 20.79 C236.2 29.94, 236.2 39.1, 236.2 62.37 M236.2 62.37 C236.2 76.23, 229.27 83.16, 215.41 83.16 M236.2 62.37 C236.2 76.23, 229.27 83.16, 215.41 83.16 M215.41 83.16 C152.07 83.16, 88.73 83.16, 20.79 83.16 M215.41 83.16 C144.5 83.16, 73.59 83.16, 20.79 83.16 M20.79 83.16 C6.93 83.16, 0 76.23, 0 62.37 M20.79 83.16 C6.93 83.16, 0 76.23, 0 62.37 M0 62.37 C0 51.02, 0 39.67, 0 20.79 M0 62.37 C0 49.67, 0 36.97, 0 20.79 M0 20.79 C0 6.93, 6.93 0, 20.79 0 M0 20.79 C0 6.93, 6.93 0, 20.79 0" stroke="#228be6" stroke-width="1" fill="none"></path></g><g stroke-opacity="0.7" fill-opacity="0.7" stroke-linecap="round" transform="translate(355.4324209508044 519.9289681788731) rotate(0 569.4347167807261 85.57271633199429)"><path d="M32 0 L1114.37 0.5 L1120.87 2 L1126.37 4.5 L1130.87 8 L1134.37 12.5 L1136.87 18 L1138.37 24.5 L1138.37 146.65 L1136.87 153.15 L1134.37 158.65 L1130.87 163.15 L1126.37 166.65 L1120.87 169.15 L1114.37 170.65 L1106.87 171.15 L24.5 170.65 L18 169.15 L12.5 166.65 L8 163.15 L4.5 158.65 L2 153.15 L0.5 146.65 L0 32 L0.5 24.5 L2 18 L4.5 12.5 L8 8 L12.5 4.5 L18 2 L24.5 0.5 L32 0" stroke="none" stroke-width="0" fill="#fd7e14"></path><path d="M32 0 M32 0 C429.14 0, 826.28 0, 1106.87 0 M32 0 C354.46 0, 676.93 0, 1106.87 0 M1106.87 0 C1128.2 0, 1138.87 10.67, 1138.87 32 M1106.87 0 C1128.2 0, 1138.87 10.67, 1138.87 32 M1138.87 32 C1138.87 71.46, 1138.87 110.91, 1138.87 139.15 M1138.87 32 C1138.87 54.42, 1138.87 76.84, 1138.87 139.15 M1138.87 139.15 C1138.87 160.48, 1128.2 171.15, 1106.87 171.15 M1138.87 139.15 C1138.87 160.48, 1128.2 171.15, 1106.87 171.15 M1106.87 171.15 C807.48 171.15, 508.09 171.15, 32 171.15 M1106.87 171.15 C764.68 171.15, 422.49 171.15, 32 171.15 M32 171.15 C10.67 171.15, 0 160.48, 0 139.15 M32 171.15 C10.67 171.15, 0 160.48, 0 139.15 M0 139.15 C0 100.94, 0 62.73, 0 32 M0 139.15 C0 99.5, 0 59.86, 0 32 M0 32 C0 10.67, 10.67 0, 32 0 M0 32 C0 10.67, 10.67 0, 32 0" stroke="#fd7e14" stroke-width="1" fill="none"></path></g><g stroke-linecap="round" transform="translate(407.1135886248924 611.5399415472284) rotate(0 56.5 20)"><path d="M10 0 L103 0 L107.38 0.63 L110.5 2.5 L112.38 5.63 L113 10 L113 30 L112.38 34.38 L110.5 37.5 L107.38 39.38 L103 40 L10 40 L5.63 39.38 L2.5 37.5 L0.62 34.38 L0 30 L0 10 L0.63 5.63 L2.5 2.5 L5.63 0.62 L10 0" stroke="none" stroke-width="0" fill="#40c057"></path><path d="M10 0 M10 0 C45.25 0, 80.5 0, 103 0 M10 0 C30.13 0, 50.25 0, 103 0 M103 0 C109.67 0, 113 3.33, 113 10 M103 0 C109.67 0, 113 3.33, 113 10 M113 10 C113 17.74, 113 25.48, 113 30 M113 10 C113 14.44, 113 18.88, 113 30 M113 30 C113 36.67, 109.67 40, 103 40 M113 30 C113 36.67, 109.67 40, 103 40 M103 40 C77.23 40, 51.45 40, 10 40 M103 40 C78.51 40, 54.02 40, 10 40 M10 40 C3.33 40, 0 36.67, 0 30 M10 40 C3.33 40, 0 36.67, 0 30 M0 30 C0 24.73, 0 19.45, 0 10 M0 30 C0 23.35, 0 16.7, 0 10 M0 10 C0 3.33, 3.33 0, 10 0 M0 10 C0 3.33, 3.33 0, 10 0" stroke="#40c057" stroke-width="1" fill="none"></path></g><g transform="translate(442.6135886248924 620.0399415472284) rotate(0 21 11.5)"><text x="21" y="19" font-family="Helvetica, Segoe UI Emoji" font-size="20px" fill="#fff" text-anchor="middle" style="white-space: pre;" direction="ltr">Ext1</text></g><g transform="translate(365.38166581315966 540.6954433001468) rotate(0 29 19.5)"><text x="0" y="30" font-family="Helvetica, Segoe UI Emoji" font-size="28px" fill="#000000" text-anchor="start" style="white-space: pre;" direction="ltr">平台</text></g><g transform="translate(185.22041548095282 121.04833835467863) rotate(0 27.5 14)"><text x="0" y="21" font-family="Helvetica, Segoe UI Emoji" font-size="20px" fill="#000000" text-anchor="start" style="white-space: pre;" direction="ltr">业务A</text></g><g stroke-linecap="round" transform="translate(638.1713508014568 611.5399415472284) rotate(0 56.5 20)"><path d="M10 0 L103 0 L107.38 0.63 L110.5 2.5 L112.38 5.63 L113 10 L113 30 L112.38 34.38 L110.5 37.5 L107.38 39.38 L103 40 L10 40 L5.63 39.38 L2.5 37.5 L0.62 34.38 L0 30 L0 10 L0.63 5.63 L2.5 2.5 L5.63 0.62 L10 0" stroke="none" stroke-width="0" fill="#40c057"></path><path d="M10 0 M10 0 C29.52 0, 49.05 0, 103 0 M10 0 C29.09 0, 48.17 0, 103 0 M103 0 C109.67 0, 113 3.33, 113 10 M103 0 C109.67 0, 113 3.33, 113 10 M113 10 C113 15.05, 113 20.11, 113 30 M113 10 C113 17.1, 113 24.2, 113 30 M113 30 C113 36.67, 109.67 40, 103 40 M113 30 C113 36.67, 109.67 40, 103 40 M103 40 C71.81 40, 40.62 40, 10 40 M103 40 C72.37 40, 41.74 40, 10 40 M10 40 C3.33 40, 0 36.67, 0 30 M10 40 C3.33 40, 0 36.67, 0 30 M0 30 C0 24.81, 0 19.63, 0 10 M0 30 C0 23.46, 0 16.91, 0 10 M0 10 C0 3.33, 3.33 0, 10 0 M0 10 C0 3.33, 3.33 0, 10 0" stroke="#40c057" stroke-width="1" fill="none"></path></g><g transform="translate(673.6713508014568 620.0399415472284) rotate(0 21 11.5)"><text x="21" y="19" font-family="Helvetica, Segoe UI Emoji" font-size="20px" fill="#fff" text-anchor="middle" style="white-space: pre;" direction="ltr">Ext2</text></g><g stroke-linecap="round" transform="translate(869.2291129780212 611.5399415472284) rotate(0 56.5 20)"><path d="M10 0 L103 0 L107.38 0.63 L110.5 2.5 L112.38 5.63 L113 10 L113 30 L112.38 34.38 L110.5 37.5 L107.38 39.38 L103 40 L10 40 L5.63 39.38 L2.5 37.5 L0.62 34.38 L0 30 L0 10 L0.63 5.63 L2.5 2.5 L5.63 0.62 L10 0" stroke="none" stroke-width="0" fill="#40c057"></path><path d="M10 0 M10 0 C31.86 0, 53.72 0, 103 0 M10 0 C38.48 0, 66.96 0, 103 0 M103 0 C109.67 0, 113 3.33, 113 10 M103 0 C109.67 0, 113 3.33, 113 10 M113 10 C113 16.24, 113 22.48, 113 30 M113 10 C113 14.82, 113 19.64, 113 30 M113 30 C113 36.67, 109.67 40, 103 40 M113 30 C113 36.67, 109.67 40, 103 40 M103 40 C66.01 40, 29.02 40, 10 40 M103 40 C68.18 40, 33.37 40, 10 40 M10 40 C3.33 40, 0 36.67, 0 30 M10 40 C3.33 40, 0 36.67, 0 30 M0 30 C0 23.72, 0 17.44, 0 10 M0 30 C0 24.56, 0 19.12, 0 10 M0 10 C0 3.33, 3.33 0, 10 0 M0 10 C0 3.33, 3.33 0, 10 0" stroke="#40c057" stroke-width="1" fill="none"></path></g><g transform="translate(904.7291129780212 620.0399415472284) rotate(0 21 11.5)"><text x="21" y="19" font-family="Helvetica, Segoe UI Emoji" font-size="20px" fill="#fff" text-anchor="middle" style="white-space: pre;" direction="ltr">Ext3</text></g><g stroke-linecap="round" transform="translate(1100.2868751545855 611.5399415472284) rotate(0 56.5 20)"><path d="M10 0 L103 0 L107.38 0.63 L110.5 2.5 L112.38 5.63 L113 10 L113 30 L112.38 34.38 L110.5 37.5 L107.38 39.38 L103 40 L10 40 L5.63 39.38 L2.5 37.5 L0.62 34.38 L0 30 L0 10 L0.63 5.63 L2.5 2.5 L5.63 0.62 L10 0" stroke="none" stroke-width="0" fill="#40c057"></path><path d="M10 0 M10 0 C46.7 0, 83.4 0, 103 0 M10 0 C31.18 0, 52.35 0, 103 0 M103 0 C109.67 0, 113 3.33, 113 10 M103 0 C109.67 0, 113 3.33, 113 10 M113 10 C113 17.68, 113 25.36, 113 30 M113 10 C113 14.78, 113 19.57, 113 30 M113 30 C113 36.67, 109.67 40, 103 40 M113 30 C113 36.67, 109.67 40, 103 40 M103 40 C74.65 40, 46.29 40, 10 40 M103 40 C74.5 40, 45.99 40, 10 40 M10 40 C3.33 40, 0 36.67, 0 30 M10 40 C3.33 40, 0 36.67, 0 30 M0 30 C0 24.45, 0 18.91, 0 10 M0 30 C0 24.73, 0 19.46, 0 10 M0 10 C0 3.33, 3.33 0, 10 0 M0 10 C0 3.33, 3.33 0, 10 0" stroke="#40c057" stroke-width="1" fill="none"></path></g><g transform="translate(1135.7868751545855 620.0399415472284) rotate(0 21 11.5)"><text x="21" y="19" font-family="Helvetica, Segoe UI Emoji" font-size="20px" fill="#fff" text-anchor="middle" style="white-space: pre;" direction="ltr">Ext4</text></g><g stroke-linecap="round" transform="translate(1331.34463733115 611.5399415472284) rotate(0 56.5 20)"><path d="M10 0 L103 0 L107.38 0.63 L110.5 2.5 L112.38 5.63 L113 10 L113 30 L112.38 34.38 L110.5 37.5 L107.38 39.38 L103 40 L10 40 L5.63 39.38 L2.5 37.5 L0.62 34.38 L0 30 L0 10 L0.63 5.63 L2.5 2.5 L5.63 0.62 L10 0" stroke="none" stroke-width="0" fill="#40c057"></path><path d="M10 0 M10 0 C43.21 0, 76.41 0, 103 0 M10 0 C31.83 0, 53.66 0, 103 0 M103 0 C109.67 0, 113 3.33, 113 10 M103 0 C109.67 0, 113 3.33, 113 10 M113 10 C113 15.04, 113 20.09, 113 30 M113 10 C113 17.39, 113 24.79, 113 30 M113 30 C113 36.67, 109.67 40, 103 40 M113 30 C113 36.67, 109.67 40, 103 40 M103 40 C66.06 40, 29.12 40, 10 40 M103 40 C67.68 40, 32.35 40, 10 40 M10 40 C3.33 40, 0 36.67, 0 30 M10 40 C3.33 40, 0 36.67, 0 30 M0 30 C0 22.82, 0 15.64, 0 10 M0 30 C0 24.36, 0 18.72, 0 10 M0 10 C0 3.33, 3.33 0, 10 0 M0 10 C0 3.33, 3.33 0, 10 0" stroke="#40c057" stroke-width="1" fill="none"></path></g><g transform="translate(1370.34463733115 620.0399415472284) rotate(0 17.5 11.5)"><text x="17.5" y="19" font-family="Helvetica, Segoe UI Emoji" font-size="20px" fill="#fff" text-anchor="middle" style="white-space: pre;" direction="ltr">......</text></g><g transform="translate(10 581.3328024037739) rotate(0 170.5 28)"><text x="0" y="21" font-family="Helvetica, Segoe UI Emoji" font-size="20px" fill="#343a40" text-anchor="start" style="white-space: pre;" direction="ltr">平台提供了扩展点，由外部进行实现，</text><text x="0" y="49" font-family="Helvetica, Segoe UI Emoji" font-size="20px" fill="#343a40" text-anchor="start" style="white-space: pre;" direction="ltr">从而达到扩展目的</text></g><g stroke-linecap="round" transform="translate(193.8576935556658 160.123317147392) rotate(0 48 16.5)"><path d="M8.25 0 L91.36 0.52 L93.94 2.06 L95.48 4.64 L96 8.25 L95.48 28.36 L93.94 30.94 L91.36 32.48 L87.75 33 L4.64 32.48 L2.06 30.94 L0.52 28.36 L0 8.25 L0.52 4.64 L2.06 2.06 L4.64 0.52 L8.25 0" stroke="none" stroke-width="0" fill="#fa5252"></path><path d="M8.25 0 M8.25 0 C38 0, 67.74 0, 87.75 0 M8.25 0 C34 0, 59.75 0, 87.75 0 M87.75 0 C93.25 0, 96 2.75, 96 8.25 M87.75 0 C93.25 0, 96 2.75, 96 8.25 M96 8.25 C96 11.73, 96 15.2, 96 24.75 M96 8.25 C96 14.65, 96 21.05, 96 24.75 M96 24.75 C96 30.25, 93.25 33, 87.75 33 M96 24.75 C96 30.25, 93.25 33, 87.75 33 M87.75 33 C71.8 33, 55.84 33, 8.25 33 M87.75 33 C58.79 33, 29.83 33, 8.25 33 M8.25 33 C2.75 33, 0 30.25, 0 24.75 M8.25 33 C2.75 33, 0 30.25, 0 24.75 M0 24.75 C0 20.14, 0 15.54, 0 8.25 M0 24.75 C0 20.88, 0 17.02, 0 8.25 M0 8.25 C0 2.75, 2.75 0, 8.25 0 M0 8.25 C0 2.75, 2.75 0, 8.25 0" stroke="#fa5252" stroke-width="1" fill="none"></path></g><g transform="translate(198.8576935556658 165.123317147392) rotate(0 43 11.5)"><text x="43" y="19" font-family="Helvetica, Segoe UI Emoji" font-size="20px" fill="#fff" text-anchor="middle" style="white-space: pre;" direction="ltr">Ext1-Impl</text></g><g stroke-linecap="round"><g stroke-opacity="0.8" fill-opacity="0.8" transform="translate(244.99752124155086 194.123317147392) rotate(0 105.89636368276956 208.2083121999182)"><path d="M0 0 C35.3 69.4, 176.49 347.01, 211.79 416.42" stroke="#c92a2a" stroke-width="2.5" fill="none" stroke-dasharray="8 10"></path></g><g stroke-opacity="0.8" fill-opacity="0.8" transform="translate(244.99752124155086 194.123317147392) rotate(0 105.89636368276956 208.2083121999182)"><path d="M189.87 395.94 C198.5 404, 207.13 412.07, 211.79 416.42" stroke="#c92a2a" stroke-width="2.5" fill="none"></path></g><g stroke-opacity="0.8" fill-opacity="0.8" transform="translate(244.99752124155086 194.123317147392) rotate(0 105.89636368276956 208.2083121999182)"><path d="M208.16 386.64 C209.59 398.36, 211.02 410.09, 211.79 416.42" stroke="#c92a2a" stroke-width="2.5" fill="none"></path></g></g><mask></mask><g stroke-linecap="round"><g stroke-opacity="0.8" fill-opacity="0.8" transform="translate(356.87155669942354 194.44049816989119) rotate(0 281.50993792002265 208.0497216886686)"><path d="M0 0 C93.84 69.35, 469.18 346.75, 563.02 416.1" stroke="#c92a2a" stroke-width="2.5" fill="none" stroke-dasharray="8 10"></path></g><g stroke-opacity="0.8" fill-opacity="0.8" transform="translate(356.87155669942354 194.44049816989119) rotate(0 281.50993792002265 208.0497216886686)"><path d="M534.25 407.6 C543.57 410.35, 552.89 413.1, 563.02 416.1" stroke="#c92a2a" stroke-width="2.5" fill="none"></path></g><g stroke-opacity="0.8" fill-opacity="0.8" transform="translate(356.87155669942354 194.44049816989119) rotate(0 281.50993792002265 208.0497216886686)"><path d="M546.45 391.09 C551.81 399.19, 557.18 407.29, 563.02 416.1" stroke="#c92a2a" stroke-width="2.5" fill="none"></path></g></g><mask></mask><g stroke-linecap="round"><g stroke-opacity="0.8" fill-opacity="0.8" transform="translate(620.7745014098668 197.88744317136204) rotate(0 35.61137650315851 204.75221135856816)"><path d="M0 0 C11.87 68.25, 59.35 341.25, 71.22 409.5" stroke="#c92a2a" stroke-width="2.5" fill="none" stroke-dasharray="8 10"></path></g><g stroke-opacity="0.8" fill-opacity="0.8" transform="translate(620.7745014098668 197.88744317136204) rotate(0 35.61137650315851 204.75221135856816)"><path d="M56.28 383.49 C60.61 391.02, 64.94 398.56, 71.22 409.5" stroke="#c92a2a" stroke-width="2.5" fill="none"></path></g><g stroke-opacity="0.8" fill-opacity="0.8" transform="translate(620.7745014098668 197.88744317136204) rotate(0 35.61137650315851 204.75221135856816)"><path d="M76.5 379.97 C74.97 388.53, 73.44 397.08, 71.22 409.5" stroke="#c92a2a" stroke-width="2.5" fill="none"></path></g></g><mask></mask><g stroke-linecap="round" transform="translate(303.82882242138214 160.123317147392) rotate(0 48 16.5)"><path d="M8.25 0 L91.36 0.52 L93.94 2.06 L95.48 4.64 L96 8.25 L95.48 28.36 L93.94 30.94 L91.36 32.48 L87.75 33 L4.64 32.48 L2.06 30.94 L0.52 28.36 L0 8.25 L0.52 4.64 L2.06 2.06 L4.64 0.52 L8.25 0" stroke="none" stroke-width="0" fill="#fa5252"></path><path d="M8.25 0 M8.25 0 C32.41 0, 56.58 0, 87.75 0 M8.25 0 C25.2 0, 42.15 0, 87.75 0 M87.75 0 C93.25 0, 96 2.75, 96 8.25 M87.75 0 C93.25 0, 96 2.75, 96 8.25 M96 8.25 C96 12.7, 96 17.15, 96 24.75 M96 8.25 C96 13.01, 96 17.77, 96 24.75 M96 24.75 C96 30.25, 93.25 33, 87.75 33 M96 24.75 C96 30.25, 93.25 33, 87.75 33 M87.75 33 C70.65 33, 53.55 33, 8.25 33 M87.75 33 C71.19 33, 54.62 33, 8.25 33 M8.25 33 C2.75 33, 0 30.25, 0 24.75 M8.25 33 C2.75 33, 0 30.25, 0 24.75 M0 24.75 C0 20.28, 0 15.8, 0 8.25 M0 24.75 C0 20.79, 0 16.82, 0 8.25 M0 8.25 C0 2.75, 2.75 0, 8.25 0 M0 8.25 C0 2.75, 2.75 0, 8.25 0" stroke="#fa5252" stroke-width="1" fill="none"></path></g><g transform="translate(308.82882242138214 165.123317147392) rotate(0 43 11.5)"><text x="43" y="19" font-family="Helvetica, Segoe UI Emoji" font-size="20px" fill="#fff" text-anchor="middle" style="white-space: pre;" direction="ltr">Ext3-Impl</text></g><g stroke-opacity="0.8" fill-opacity="0.8" stroke-linecap="round" transform="translate(500.22197765552517 118.40404652227136) rotate(0 118.09829605567734 41.578363336271295)"><path d="M20.79 0 L215.41 0 L224.5 1.3 L231 5.2 L234.9 11.69 L235.87 15.92 L236.2 62.37 L234.9 71.46 L233.27 75.04 L228.08 80.23 L224.5 81.86 L215.41 83.16 L20.79 83.16 L11.69 81.86 L5.2 77.96 L1.3 71.46 L0.32 67.24 L0.32 15.92 L1.3 11.69 L5.2 5.2 L11.69 1.3 L20.79 0" stroke="none" stroke-width="0" fill="#228be6"></path><path d="M20.79 0 M20.79 0 C76.19 0, 131.59 0, 215.41 0 M20.79 0 C74.2 0, 127.62 0, 215.41 0 M215.41 0 C229.27 0, 236.2 6.93, 236.2 20.79 M215.41 0 C229.27 0, 236.2 6.93, 236.2 20.79 M236.2 20.79 C236.2 30.79, 236.2 40.8, 236.2 62.37 M236.2 20.79 C236.2 37.06, 236.2 53.33, 236.2 62.37 M236.2 62.37 C236.2 76.23, 229.27 83.16, 215.41 83.16 M236.2 62.37 C236.2 76.23, 229.27 83.16, 215.41 83.16 M215.41 83.16 C163.06 83.16, 110.72 83.16, 20.79 83.16 M215.41 83.16 C158.52 83.16, 101.63 83.16, 20.79 83.16 M20.79 83.16 C6.93 83.16, 0 76.23, 0 62.37 M20.79 83.16 C6.93 83.16, 0 76.23, 0 62.37 M0 62.37 C0 49.02, 0 35.67, 0 20.79 M0 62.37 C0 49.12, 0 35.87, 0 20.79 M0 20.79 C0 6.93, 6.93 0, 20.79 0 M0 20.79 C0 6.93, 6.93 0, 20.79 0" stroke="#228be6" stroke-width="1" fill="none"></path></g><g transform="translate(508.1505123280484 121.04833835467863) rotate(0 93 14)"><text x="0" y="21" font-family="Helvetica, Segoe UI Emoji" font-size="20px" fill="#000000" text-anchor="start" style="white-space: pre;" direction="ltr">业务B (挂载能力X/Y)</text></g><g stroke-linecap="round" transform="translate(570.8813547337137 160.123317147392) rotate(0 48 16.5)"><path d="M8.25 0 L91.36 0.52 L93.94 2.06 L95.48 4.64 L96 8.25 L95.48 28.36 L93.94 30.94 L91.36 32.48 L87.75 33 L4.64 32.48 L2.06 30.94 L0.52 28.36 L0 8.25 L0.52 4.64 L2.06 2.06 L4.64 0.52 L8.25 0" stroke="none" stroke-width="0" fill="#fa5252"></path><path d="M8.25 0 M8.25 0 C26.24 0, 44.23 0, 87.75 0 M8.25 0 C24.38 0, 40.51 0, 87.75 0 M87.75 0 C93.25 0, 96 2.75, 96 8.25 M87.75 0 C93.25 0, 96 2.75, 96 8.25 M96 8.25 C96 14.65, 96 21.04, 96 24.75 M96 8.25 C96 12.29, 96 16.32, 96 24.75 M96 24.75 C96 30.25, 93.25 33, 87.75 33 M96 24.75 C96 30.25, 93.25 33, 87.75 33 M87.75 33 C67.62 33, 47.49 33, 8.25 33 M87.75 33 C70.25 33, 52.75 33, 8.25 33 M8.25 33 C2.75 33, 0 30.25, 0 24.75 M8.25 33 C2.75 33, 0 30.25, 0 24.75 M0 24.75 C0 20.46, 0 16.17, 0 8.25 M0 24.75 C0 19.53, 0 14.31, 0 8.25 M0 8.25 C0 2.75, 2.75 0, 8.25 0 M0 8.25 C0 2.75, 2.75 0, 8.25 0" stroke="#fa5252" stroke-width="1" fill="none"></path></g><g transform="translate(575.8813547337137 165.123317147392) rotate(0 43 11.5)"><text x="43" y="19" font-family="Helvetica, Segoe UI Emoji" font-size="20px" fill="#fff" text-anchor="middle" style="white-space: pre;" direction="ltr">Ext2-Impl</text></g><g stroke-opacity="0.8" fill-opacity="0.8" stroke-linecap="round" transform="translate(841.2537071430633 118.40404652227136) rotate(0 118.09829605567734 41.578363336271295)"><path d="M20.79 0 L215.41 0 L224.5 1.3 L231 5.2 L234.9 11.69 L235.87 15.92 L236.2 62.37 L234.9 71.46 L233.27 75.04 L228.08 80.23 L224.5 81.86 L215.41 83.16 L20.79 83.16 L11.69 81.86 L5.2 77.96 L1.3 71.46 L0.32 67.24 L0.32 15.92 L1.3 11.69 L5.2 5.2 L11.69 1.3 L20.79 0" stroke="none" stroke-width="0" fill="#228be6"></path><path d="M20.79 0 M20.79 0 C81.19 0, 141.59 0, 215.41 0 M20.79 0 C70.75 0, 120.7 0, 215.41 0 M215.41 0 C229.27 0, 236.2 6.93, 236.2 20.79 M215.41 0 C229.27 0, 236.2 6.93, 236.2 20.79 M236.2 20.79 C236.2 31.48, 236.2 42.17, 236.2 62.37 M236.2 20.79 C236.2 35.84, 236.2 50.88, 236.2 62.37 M236.2 62.37 C236.2 76.23, 229.27 83.16, 215.41 83.16 M236.2 62.37 C236.2 76.23, 229.27 83.16, 215.41 83.16 M215.41 83.16 C166.34 83.16, 117.28 83.16, 20.79 83.16 M215.41 83.16 C151.7 83.16, 87.99 83.16, 20.79 83.16 M20.79 83.16 C6.93 83.16, 0 76.23, 0 62.37 M20.79 83.16 C6.93 83.16, 0 76.23, 0 62.37 M0 62.37 C0 53.91, 0 45.45, 0 20.79 M0 62.37 C0 47.76, 0 33.15, 0 20.79 M0 20.79 C0 6.93, 6.93 0, 20.79 0 M0 20.79 C0 6.93, 6.93 0, 20.79 0" stroke="#228be6" stroke-width="1" fill="none"></path></g><g transform="translate(849.1704896061703 121.04833835467863) rotate(0 37.5 14)"><text x="0" y="21" font-family="Helvetica, Segoe UI Emoji" font-size="20px" fill="#000000" text-anchor="start" style="white-space: pre;" direction="ltr">业务......</text></g><g stroke-opacity="0.8" fill-opacity="0.8" stroke-linecap="round" transform="translate(887.288279774791 373.9325506295469) rotate(0 118.09829605567734 41.57836333627128)"><path d="M20.79 0 L215.41 0 L224.5 1.3 L231 5.2 L234.9 11.69 L235.87 15.92 L236.2 62.37 L234.9 71.46 L233.27 75.04 L228.08 80.23 L224.5 81.86 L215.41 83.16 L20.79 83.16 L11.69 81.86 L5.2 77.96 L1.3 71.46 L0.32 67.24 L0.32 15.92 L1.3 11.69 L5.2 5.2 L11.69 1.3 L20.79 0" stroke="none" stroke-width="0" fill="#fab005"></path><path d="M20.79 0 M20.79 0 C98.44 0, 176.09 0, 215.41 0 M20.79 0 C68.7 0, 116.61 0, 215.41 0 M215.41 0 C229.27 0, 236.2 6.93, 236.2 20.79 M215.41 0 C229.27 0, 236.2 6.93, 236.2 20.79 M236.2 20.79 C236.2 29.77, 236.2 38.75, 236.2 62.37 M236.2 20.79 C236.2 30.37, 236.2 39.95, 236.2 62.37 M236.2 62.37 C236.2 76.23, 229.27 83.16, 215.41 83.16 M236.2 62.37 C236.2 76.23, 229.27 83.16, 215.41 83.16 M215.41 83.16 C175.27 83.16, 135.13 83.16, 20.79 83.16 M215.41 83.16 C148.53 83.16, 81.66 83.16, 20.79 83.16 M20.79 83.16 C6.93 83.16, 0 76.23, 0 62.37 M20.79 83.16 C6.93 83.16, 0 76.23, 0 62.37 M0 62.37 C0 50.33, 0 38.29, 0 20.79 M0 62.37 C0 52.46, 0 42.55, 0 20.79 M0 20.79 C0 6.93, 6.93 0, 20.79 0 M0 20.79 C0 6.93, 6.93 0, 20.79 0" stroke="#fab005" stroke-width="1" fill="none"></path></g><g transform="translate(895.4831291343781 376.85580280125544) rotate(0 27.5 14)"><text x="0" y="21" font-family="Helvetica, Segoe UI Emoji" font-size="20px" fill="#000000" text-anchor="start" style="white-space: pre;" direction="ltr">能力X</text></g><g stroke-linecap="round" transform="translate(903.84106887475 412.8331466067823) rotate(0 48 16.5)"><path d="M8.25 0 L91.36 0.52 L93.94 2.06 L95.48 4.64 L96 8.25 L95.48 28.36 L93.94 30.94 L91.36 32.48 L87.75 33 L4.64 32.48 L2.06 30.94 L0.52 28.36 L0 8.25 L0.52 4.64 L2.06 2.06 L4.64 0.52 L8.25 0" stroke="none" stroke-width="0" fill="#fa5252"></path><path d="M8.25 0 M8.25 0 C30.91 0, 53.56 0, 87.75 0 M8.25 0 C29.39 0, 50.53 0, 87.75 0 M87.75 0 C93.25 0, 96 2.75, 96 8.25 M87.75 0 C93.25 0, 96 2.75, 96 8.25 M96 8.25 C96 14.51, 96 20.76, 96 24.75 M96 8.25 C96 11.59, 96 14.92, 96 24.75 M96 24.75 C96 30.25, 93.25 33, 87.75 33 M96 24.75 C96 30.25, 93.25 33, 87.75 33 M87.75 33 C56.9 33, 26.04 33, 8.25 33 M87.75 33 C67.78 33, 47.8 33, 8.25 33 M8.25 33 C2.75 33, 0 30.25, 0 24.75 M8.25 33 C2.75 33, 0 30.25, 0 24.75 M0 24.75 C0 20.13, 0 15.52, 0 8.25 M0 24.75 C0 19, 0 13.25, 0 8.25 M0 8.25 C0 2.75, 2.75 0, 8.25 0 M0 8.25 C0 2.75, 2.75 0, 8.25 0" stroke="#fa5252" stroke-width="1" fill="none"></path></g><g transform="translate(908.84106887475 417.8331466067823) rotate(0 43 11.5)"><text x="43" y="19" font-family="Helvetica, Segoe UI Emoji" font-size="20px" fill="#fff" text-anchor="middle" style="white-space: pre;" direction="ltr">Ext2-Impl</text></g><g stroke-linecap="round" transform="translate(1013.8121977404663 412.8331466067823) rotate(0 48 16.5)"><path d="M8.25 0 L91.36 0.52 L93.94 2.06 L95.48 4.64 L96 8.25 L95.48 28.36 L93.94 30.94 L91.36 32.48 L87.75 33 L4.64 32.48 L2.06 30.94 L0.52 28.36 L0 8.25 L0.52 4.64 L2.06 2.06 L4.64 0.52 L8.25 0" stroke="none" stroke-width="0" fill="#fa5252"></path><path d="M8.25 0 M8.25 0 C32.9 0, 57.55 0, 87.75 0 M8.25 0 C38.26 0, 68.28 0, 87.75 0 M87.75 0 C93.25 0, 96 2.75, 96 8.25 M87.75 0 C93.25 0, 96 2.75, 96 8.25 M96 8.25 C96 14, 96 19.75, 96 24.75 M96 8.25 C96 12.89, 96 17.52, 96 24.75 M96 24.75 C96 30.25, 93.25 33, 87.75 33 M96 24.75 C96 30.25, 93.25 33, 87.75 33 M87.75 33 C70.44 33, 53.13 33, 8.25 33 M87.75 33 C57.17 33, 26.59 33, 8.25 33 M8.25 33 C2.75 33, 0 30.25, 0 24.75 M8.25 33 C2.75 33, 0 30.25, 0 24.75 M0 24.75 C0 20.25, 0 15.76, 0 8.25 M0 24.75 C0 20.96, 0 17.16, 0 8.25 M0 8.25 C0 2.75, 2.75 0, 8.25 0 M0 8.25 C0 2.75, 2.75 0, 8.25 0" stroke="#fa5252" stroke-width="1" fill="none"></path></g><g transform="translate(1018.8121977404663 417.8331466067823) rotate(0 43 11.5)"><text x="43" y="19" font-family="Helvetica, Segoe UI Emoji" font-size="20px" fill="#fff" text-anchor="middle" style="white-space: pre;" direction="ltr">Ext4-Impl</text></g><g stroke-opacity="0.8" fill-opacity="0.8" stroke-linecap="round" transform="translate(1157.3629865882608 373.9325506295469) rotate(0 118.09829605567734 41.57836333627128)"><path d="M20.79 0 L215.41 0 L224.5 1.3 L231 5.2 L234.9 11.69 L235.87 15.92 L236.2 62.37 L234.9 71.46 L233.27 75.04 L228.08 80.23 L224.5 81.86 L215.41 83.16 L20.79 83.16 L11.69 81.86 L5.2 77.96 L1.3 71.46 L0.32 67.24 L0.32 15.92 L1.3 11.69 L5.2 5.2 L11.69 1.3 L20.79 0" stroke="none" stroke-width="0" fill="#fab005"></path><path d="M20.79 0 M20.79 0 C80.7 0, 140.61 0, 215.41 0 M20.79 0 C62.12 0, 103.44 0, 215.41 0 M215.41 0 C229.27 0, 236.2 6.93, 236.2 20.79 M215.41 0 C229.27 0, 236.2 6.93, 236.2 20.79 M236.2 20.79 C236.2 32.75, 236.2 44.72, 236.2 62.37 M236.2 20.79 C236.2 33.54, 236.2 46.29, 236.2 62.37 M236.2 62.37 C236.2 76.23, 229.27 83.16, 215.41 83.16 M236.2 62.37 C236.2 76.23, 229.27 83.16, 215.41 83.16 M215.41 83.16 C165.86 83.16, 116.31 83.16, 20.79 83.16 M215.41 83.16 C171.96 83.16, 128.51 83.16, 20.79 83.16 M20.79 83.16 C6.93 83.16, 0 76.23, 0 62.37 M20.79 83.16 C6.93 83.16, 0 76.23, 0 62.37 M0 62.37 C0 46.35, 0 30.34, 0 20.79 M0 62.37 C0 49.14, 0 35.9, 0 20.79 M0 20.79 C0 6.93, 6.93 0, 20.79 0 M0 20.79 C0 6.93, 6.93 0, 20.79 0" stroke="#fab005" stroke-width="1" fill="none"></path></g><g transform="translate(1165.5578359478482 376.85580280125544) rotate(0 27.5 14)"><text x="0" y="21" font-family="Helvetica, Segoe UI Emoji" font-size="20px" fill="#000000" text-anchor="start" style="white-space: pre;" direction="ltr">能力Y</text></g><g stroke-linecap="round" transform="translate(1231.8060596506982 412.8331466067823) rotate(0 48 16.5)"><path d="M8.25 0 L91.36 0.52 L93.94 2.06 L95.48 4.64 L96 8.25 L95.48 28.36 L93.94 30.94 L91.36 32.48 L87.75 33 L4.64 32.48 L2.06 30.94 L0.52 28.36 L0 8.25 L0.52 4.64 L2.06 2.06 L4.64 0.52 L8.25 0" stroke="none" stroke-width="0" fill="#fa5252"></path><path d="M8.25 0 M8.25 0 C24.51 0, 40.77 0, 87.75 0 M8.25 0 C28.22 0, 48.19 0, 87.75 0 M87.75 0 C93.25 0, 96 2.75, 96 8.25 M87.75 0 C93.25 0, 96 2.75, 96 8.25 M96 8.25 C96 12.86, 96 17.46, 96 24.75 M96 8.25 C96 12.51, 96 16.76, 96 24.75 M96 24.75 C96 30.25, 93.25 33, 87.75 33 M96 24.75 C96 30.25, 93.25 33, 87.75 33 M87.75 33 C71.61 33, 55.47 33, 8.25 33 M87.75 33 C62.41 33, 37.08 33, 8.25 33 M8.25 33 C2.75 33, 0 30.25, 0 24.75 M8.25 33 C2.75 33, 0 30.25, 0 24.75 M0 24.75 C0 19.58, 0 14.41, 0 8.25 M0 24.75 C0 18.81, 0 12.86, 0 8.25 M0 8.25 C0 2.75, 2.75 0, 8.25 0 M0 8.25 C0 2.75, 2.75 0, 8.25 0" stroke="#fa5252" stroke-width="1" fill="none"></path></g><g transform="translate(1236.8060596506982 417.8331466067823) rotate(0 43 11.5)"><text x="43" y="19" font-family="Helvetica, Segoe UI Emoji" font-size="20px" fill="#fff" text-anchor="middle" style="white-space: pre;" direction="ltr">Ext4-Impl</text></g><g stroke-opacity="0.8" fill-opacity="0.8" stroke-linecap="round" transform="translate(1431.2749615920607 373.9325506295469) rotate(0 118.09829605567734 41.57836333627128)"><path d="M20.79 0 L215.41 0 L224.5 1.3 L231 5.2 L234.9 11.69 L235.87 15.92 L236.2 62.37 L234.9 71.46 L233.27 75.04 L228.08 80.23 L224.5 81.86 L215.41 83.16 L20.79 83.16 L11.69 81.86 L5.2 77.96 L1.3 71.46 L0.32 67.24 L0.32 15.92 L1.3 11.69 L5.2 5.2 L11.69 1.3 L20.79 0" stroke="none" stroke-width="0" fill="#fab005"></path><path d="M20.79 0 M20.79 0 C90.79 0, 160.8 0, 215.41 0 M20.79 0 C92.95 0, 165.1 0, 215.41 0 M215.41 0 C229.27 0, 236.2 6.93, 236.2 20.79 M215.41 0 C229.27 0, 236.2 6.93, 236.2 20.79 M236.2 20.79 C236.2 32.7, 236.2 44.61, 236.2 62.37 M236.2 20.79 C236.2 32.43, 236.2 44.07, 236.2 62.37 M236.2 62.37 C236.2 76.23, 229.27 83.16, 215.41 83.16 M236.2 62.37 C236.2 76.23, 229.27 83.16, 215.41 83.16 M215.41 83.16 C143.43 83.16, 71.46 83.16, 20.79 83.16 M215.41 83.16 C172.2 83.16, 128.98 83.16, 20.79 83.16 M20.79 83.16 C6.93 83.16, 0 76.23, 0 62.37 M20.79 83.16 C6.93 83.16, 0 76.23, 0 62.37 M0 62.37 C0 51.63, 0 40.89, 0 20.79 M0 62.37 C0 51.64, 0 40.91, 0 20.79 M0 20.79 C0 6.93, 6.93 0, 20.79 0 M0 20.79 C0 6.93, 6.93 0, 20.79 0" stroke="#fab005" stroke-width="1" fill="none"></path></g><g transform="translate(1439.469810951648 376.85580280125544) rotate(0 37.5 14)"><text x="0" y="21" font-family="Helvetica, Segoe UI Emoji" font-size="20px" fill="#000000" text-anchor="start" style="white-space: pre;" direction="ltr">能力......</text></g><g stroke-linecap="round"><g stroke-opacity="0.8" fill-opacity="0.8" transform="translate(945.5915989397965 449.7604904070066) rotate(0 -112.8232594070883 76.84010740423005)"><path d="M0 0 C-37.61 25.61, -188.04 128.07, -225.65 153.68" stroke="#c92a2a" stroke-width="2.5" fill="none" stroke-dasharray="8 10"></path></g><g stroke-opacity="0.8" fill-opacity="0.8" transform="translate(945.5915989397965 449.7604904070066) rotate(0 -112.8232594070883 76.84010740423005)"><path d="M-208.12 129.33 C-211.65 134.23, -215.17 139.13, -225.65 153.68" stroke="#c92a2a" stroke-width="2.5" fill="none"></path></g><g stroke-opacity="0.8" fill-opacity="0.8" transform="translate(945.5915989397965 449.7604904070066) rotate(0 -112.8232594070883 76.84010740423005)"><path d="M-196.57 146.29 C-202.42 147.78, -208.27 149.27, -225.65 153.68" stroke="#c92a2a" stroke-width="2.5" fill="none"></path></g></g><mask></mask><g stroke-linecap="round"><g stroke-opacity="0.8" fill-opacity="0.8" transform="translate(1062.902441358133 447.80084385003374) rotate(0 42.0224138403089 78.50129251417155)"><path d="M0 0 C14.01 26.17, 70.04 130.84, 84.04 157" stroke="#c92a2a" stroke-width="2.5" fill="none" stroke-dasharray="8 10"></path></g><g stroke-opacity="0.8" fill-opacity="0.8" transform="translate(1062.902441358133 447.80084385003374) rotate(0 42.0224138403089 78.50129251417155)"><path d="M61.69 136.99 C67.54 142.23, 73.39 147.47, 84.04 157" stroke="#c92a2a" stroke-width="2.5" fill="none"></path></g><g stroke-opacity="0.8" fill-opacity="0.8" transform="translate(1062.902441358133 447.80084385003374) rotate(0 42.0224138403089 78.50129251417155)"><path d="M79.79 127.31 C80.9 135.08, 82.02 142.85, 84.04 157" stroke="#c92a2a" stroke-width="2.5" fill="none"></path></g></g><mask></mask><g stroke-linecap="round"><g stroke-opacity="0.8" fill-opacity="0.8" transform="translate(1275.9148697375492 450.8006124851223) rotate(0 -51.027718795935925 75.12177631692239)"><path d="M0 0 C-17.01 25.04, -85.05 125.2, -102.06 150.24" stroke="#c92a2a" stroke-width="2.5" fill="none" stroke-dasharray="8 10"></path></g><g stroke-opacity="0.8" fill-opacity="0.8" transform="translate(1275.9148697375492 450.8006124851223) rotate(0 -51.027718795935925 75.12177631692239)"><path d="M-94.7 121.16 C-97.43 131.95, -100.16 142.75, -102.06 150.24" stroke="#c92a2a" stroke-width="2.5" fill="none"></path></g><g stroke-opacity="0.8" fill-opacity="0.8" transform="translate(1275.9148697375492 450.8006124851223) rotate(0 -51.027718795935925 75.12177631692239)"><path d="M-77.73 132.69 C-86.76 139.21, -95.79 145.72, -102.06 150.24" stroke="#c92a2a" stroke-width="2.5" fill="none"></path></g></g><mask></mask><g stroke-linecap="round"><g stroke-opacity="0.7" fill-opacity="0.7" transform="translate(730.4591995890245 202.78229852880156) rotate(0 80.54736537696647 87.9019904930194)"><path d="M0 0 C26.85 29.3, 134.25 146.5, 161.09 175.8 M0 0 C26.85 29.3, 134.25 146.5, 161.09 175.8" stroke="#2b8a3e" stroke-width="4" fill="none"></path></g><g stroke-opacity="0.7" fill-opacity="0.7" transform="translate(730.4591995890245 202.78229852880156) rotate(0 80.54736537696647 87.9019904930194)"><path d="M134.48 161.95 C142.62 166.19, 150.76 170.42, 161.09 175.8 M134.48 161.95 C141.62 165.66, 148.75 169.38, 161.09 175.8" stroke="#2b8a3e" stroke-width="4" fill="none"></path></g><g stroke-opacity="0.7" fill-opacity="0.7" transform="translate(730.4591995890245 202.78229852880156) rotate(0 80.54736537696647 87.9019904930194)"><path d="M149.61 148.09 C153.13 156.56, 156.64 165.04, 161.09 175.8 M149.61 148.09 C152.69 155.52, 155.77 162.95, 161.09 175.8" stroke="#2b8a3e" stroke-width="4" fill="none"></path></g></g><mask></mask><g stroke-linecap="round"><g stroke-opacity="0.7" fill-opacity="0.7" transform="translate(736.9130185828687 198.18257693220744) rotate(0 210.55780949002389 90.16799496287386)"><path d="M0 0 C70.19 30.06, 350.93 150.28, 421.12 180.34 M0 0 C70.19 30.06, 350.93 150.28, 421.12 180.34" stroke="#2b8a3e" stroke-width="4" fill="none"></path></g><g stroke-opacity="0.7" fill-opacity="0.7" transform="translate(736.9130185828687 198.18257693220744) rotate(0 210.55780949002389 90.16799496287386)"><path d="M391.16 178.67 C399.75 179.15, 408.33 179.63, 421.12 180.34 M391.16 178.67 C402.65 179.31, 414.14 179.95, 421.12 180.34" stroke="#2b8a3e" stroke-width="4" fill="none"></path></g><g stroke-opacity="0.7" fill-opacity="0.7" transform="translate(736.9130185828687 198.18257693220744) rotate(0 210.55780949002389 90.16799496287386)"><path d="M399.24 159.81 C405.51 165.69, 411.78 171.58, 421.12 180.34 M399.24 159.81 C407.63 167.68, 416.02 175.55, 421.12 180.34" stroke="#2b8a3e" stroke-width="4" fill="none"></path></g></g><mask></mask><g stroke-opacity="0.7" fill-opacity="0.7" stroke-linecap="round" transform="translate(159.02497842767193 83.34657011468843) rotate(0 468.6243245437704 70.45229620650792)"><path d="M32 0 M32 0 C255.23 0, 478.47 0, 905.25 0 M905.25 0 C926.58 0, 937.25 10.67, 937.25 32 M937.25 32 C937.25 62.21, 937.25 92.42, 937.25 108.9 M937.25 108.9 C937.25 130.24, 926.58 140.9, 905.25 140.9 M905.25 140.9 C672.72 140.9, 440.2 140.9, 32 140.9 M32 140.9 C10.67 140.9, 0 130.24, 0 108.9 M0 108.9 C0 86.68, 0 64.46, 0 32 M0 32 C0 10.67, 10.67 0, 32 0" stroke="#000" stroke-width="1.5" fill="none" stroke-dasharray="1.5 7"></path></g><g transform="translate(161.42658191202693 10) rotate(0 360.5 28)"><text x="0" y="21" font-family="Helvetica, Segoe UI Emoji" font-size="20px" fill="#343a40" text-anchor="start" style="white-space: pre;" direction="ltr">业务即平台接入方，</text><text x="0" y="49" font-family="Helvetica, Segoe UI Emoji" font-size="20px" fill="#343a40" text-anchor="start" style="white-space: pre;" direction="ltr">可以自定义实现平台提供的扩展点，也可以挂载能力 (即继承了能力的扩展点实现)</text></g><g transform="translate(343.49546400180463 363.9765915141877) rotate(0 49 11.5)"><text x="0" y="17" font-family="Helvetica, Segoe UI Emoji" font-size="16px" fill="#c92a2a" text-anchor="start" style="white-space: pre;" direction="ltr">实现了扩展点</text></g><g stroke-opacity="0.7" fill-opacity="0.7" stroke-linecap="round" transform="translate(863.797434400549 344.3037788466139) rotate(0 412.59821761835116 67.88871666564458)"><path d="M32 0 M32 0 C334.22 0, 636.45 0, 793.2 0 M793.2 0 C814.53 0, 825.2 10.67, 825.2 32 M825.2 32 C825.2 55.26, 825.2 78.52, 825.2 103.78 M825.2 103.78 C825.2 125.11, 814.53 135.78, 793.2 135.78 M793.2 135.78 C595.67 135.78, 398.14 135.78, 32 135.78 M32 135.78 C10.67 135.78, 0 125.11, 0 103.78 M0 103.78 C0 81.32, 0 58.87, 0 32 M0 32 C0 10.67, 10.67 0, 32 0" stroke="#000" stroke-width="1.5" fill="none" stroke-dasharray="1.5 7"></path></g><g transform="translate(1066.6549531120302 266.6021732451644) rotate(0 250.5 27.999999999999986)"><text x="0" y="21" font-family="Helvetica, Segoe UI Emoji" font-size="20px" fill="#343a40" text-anchor="start" style="white-space: pre;" direction="ltr">能力是平台提供的特点产品能力的一组扩展点默认实现，</text><text x="0" y="49" font-family="Helvetica, Segoe UI Emoji" font-size="20px" fill="#343a40" text-anchor="start" style="white-space: pre;" direction="ltr">业务可以挂载能力继承能力的实现</text></g><g transform="translate(801.676167431942 248.66894952739486) rotate(0 33 11.5)"><text x="0" y="17" font-family="Helvetica, Segoe UI Emoji" font-size="16px" fill="#c92a2a" text-anchor="start" style="white-space: pre;" direction="ltr">挂载能力</text></g></svg>