<!--<svg class="icon" viewBox="0 0 1024 1024" version="1.1" xmlns="http://www.w3.org/2000/svg"-->
<!--     width="200" height="200">-->
<!--  <path-->
<!--      d="M878 459.6c-34.1 0-63.4 20.5-76.2 49.9h-40.4V356.8c0-44.3-35.9-80.2-80.2-80.2H479.6V236c29-12.9 49.3-42 49.3-75.9 0-45.8-37.1-83-82.8-83-45.7 0-82.8 37.2-82.8 83 0 33.9 20.3 63 49.3 75.9v40.5H210.5c-44.3 0-80.2 35.9-80.2 80.2v169.1h40.4c12.8-29.3 42.1-49.9 76.2-49.9 45.9 0 83.1 37.2 83.1 83s-37.2 83-83.1 83c-34.1 0-63.4-20.5-76.2-49.9h-40.4v202.6c0 44.3 35.9 80.2 80.2 80.2h202.2v-40c-29-12.9-49.3-42.2-49.3-76.2 0-46 37.1-83.3 82.8-83.3 45.7 0 82.8 37.3 82.8 83.3 0 34-20.3 63.3-49.3 76.2v40h201.6c44.3 0 80.2-35.9 80.2-80.2v-219h40.4c12.8 29.3 42.1 49.9 76.2 49.9 45.9 0 83.1-37.2 83.1-83-0.1-45.7-37.3-82.9-83.2-82.9z"-->
<!--      fill="#065279"/>-->
<!--</svg>-->
<svg class="icon"
     viewBox="0 0 1024 1024"
     version="1.1"
     xmlns="http://www.w3.org/2000/svg"
     width="200" height="200">
  <path
    d="M446.603636 415.837091c20.386909 8.052364 33.698909 27.787636 33.512728 49.710545V966.749091c0 36.957091-36.072727 62.696727-69.864728 49.710545L34.257455 871.889455a52.968727 52.968727 0 0 1-33.559273-49.664V321.070545c0-37.143273 36.119273-62.789818 70.004363-49.803636l375.901091 144.570182z m163.467637 600.622545c-33.745455 13.032727-70.004364-12.753455-70.004364-49.710545V465.547636c0-22.062545 13.405091-42.030545 33.652364-49.710545l375.901091-144.570182c33.792-12.939636 70.050909 12.660364 70.050909 49.664v501.154909c0 22.248727-13.405091 41.984-33.698909 49.710546l-375.854546 144.756363-0.046545-0.093091z m308.782545-872.261818c34.257455 13.125818 33.745455 62.929455-0.698182 75.496727L523.170909 362.589091a38.353455 38.353455 0 0 1-26.112 0L108.264727 221.835636c-35.095273-12.660364-34.629818-63.767273 0.698182-75.962181L526.894545 3.025455a38.167273 38.167273 0 0 1 26.205091 0.512L918.807273 144.290909v-0.046545z"
    fill="#1296db"
  />
</svg>
