<?xml
  version="1.0" encoding="UTF-8"?>
<svg width="24px" height="24px" viewBox="0 0 24 24" version="1.1" xmlns="http://www.w3.org/2000/svg" xmlns:xlink="http://www.w3.org/1999/xlink">
  <title>doc-icon</title>
  <g id="Easy-Extension" stroke="none" stroke-width="1" fill="none" fill-rule="evenodd">
    <g id="扩展点" transform="translate(-528.000000, -223.000000)" fill="#1890FF">
      <g id="Group-9" transform="translate(288.000000, 222.000000)">
        <g id="Group-3" transform="translate(240.000000, 1.000000)">
          <g id="Group-16">
            <path d="M12,24 C5.372583,24 0,18.627417 0,12 C0,5.372583 5.372583,0 12,0 C18.627417,0 24,5.372583 24,12 C24,18.627417 18.627417,24 12,24 Z M12,23.04 C18.0972236,23.04 23.04,18.0972236 23.04,12 C23.04,5.90277636 18.0972236,0.96 12,0.96 C5.90277636,0.96 0.96,5.90277636 0.96,12 C0.96,18.0972236 5.90277636,23.04 12,23.04 Z" id="Oval-8-Copy-2" fill-rule="nonzero" />
            <path d="M14.2399285,18.7142857 L8.1120583,18.7142857 C7.49828131,18.7142857 7,18.2374536 7,17.6500756 L7,6.06421009 C7,5.47683212 7.49828131,5 8.1120583,5 L16.2231541,5 C16.8369311,5 17.3352124,5.47683212 17.3352124,6.06421009 L17.3352124,15.2560154 L14.2399285,18.7142857 Z M13.8571429,14.2924515 L16.2924515,14.2924515 L16.2924515,6.06915991 C16.2858518,6.06091022 16.2611027,6.0427609 16.2231541,6.0427609 L8.1120583,6.0427609 C8.07410972,6.0427609 8.04936065,6.05926028 8.0427609,6.06915991 L8.0427609,6.06915991 L8.0427609,17.6434759 C8.04936065,17.6533755 8.07575966,17.6715248 8.1120583,17.6715248 L12.9133782,17.6715248 L12.9133782,15.2362161 C12.9133782,14.7164856 13.3374123,14.2924515 13.8571429,14.2924515 Z M13.9561391,15.3352124 L13.9561391,17.4669325 L15.8634676,15.3352124 L13.9561391,15.3352124 Z M9.20926715,13.614327 C8.94032724,13.614327 8.72088547,13.3948852 8.72088547,13.1259453 C8.72088547,12.8570054 8.94032724,12.6375636 9.20926715,12.6375636 L12.5883404,12.6375636 C12.8572804,12.6375636 13.0767221,12.8570054 13.0767221,13.1259453 C13.0767221,13.3948852 12.8572804,13.614327 12.5883404,13.614327 L9.20926715,13.614327 Z M8.72088547,10.5899904 C8.72088547,10.3210505 8.94032724,10.1016087 9.20926715,10.1016087 L15.1292452,10.1016087 C15.3981851,10.1016087 15.6176268,10.3210505 15.6176268,10.5899904 C15.6176268,10.8589303 15.3981851,11.0783721 15.1292452,11.0783721 L9.20926715,11.0783721 C8.94032724,11.0783721 8.72088547,10.8589303 8.72088547,10.5899904 Z M12.5883404,8.5440671 L9.20926715,8.5440671 C8.94032724,8.5440671 8.72088547,8.32462533 8.72088547,8.05568541 C8.72088547,7.7867455 8.94032724,7.56730373 9.20926715,7.56730373 L12.5883404,7.56730373 C12.8572804,7.56730373 13.0767221,7.7867455 13.0767221,8.05568541 C13.0767221,8.32462533 12.8572804,8.5440671 12.5883404,8.5440671 Z" id="Shape" transform="translate(12.167606, 11.857143) scale(1, -1) translate(-12.167606, -11.857143) "/>
          </g>
        </g>
      </g>
    </g>
  </g>
</svg>
