
<svg width="24px" height="24px" viewBox="0 0 24 24" version="1.1" xmlns="http://www.w3.org/2000/svg" xmlns:xlink="http://www.w3.org/1999/xlink">
  <g id="页面-2" stroke="none" stroke-width="1" fill="none" fill-rule="evenodd">
    <g id="question" fill="#1890FF" fill-rule="nonzero">
      <path d="M11.6848663,18.9719032 C11.775742,19.0100171 11.8783437,19.0364036 11.9692195,19.0364036 C12.0600953,19.0364036 12.1773543,19.0100171 12.2535727,18.9719032 C12.6288018,18.816516 12.7988274,18.3884681 12.6288018,18.0102614 C12.5643093,17.840215 12.4206669,17.7112143 12.2535727,17.6349866 C12.162697,17.5968727 12.0600953,17.5704862 11.9692195,17.5704862 C11.8783437,17.5704862 11.7610846,17.5968727 11.6848663,17.6349866 C11.5031147,17.7141461 11.3741297,17.8548742 11.2949798,18.0249206 C11.21583,18.2066944 11.21583,18.4148546 11.3067058,18.5702419 C11.3858556,18.763743 11.5177721,18.904471 11.6848663,18.9719032 L11.6848663,18.9719032 Z M13.7369,13.2343025 C13.8922682,13.1053017 14.0476365,12.9880283 14.2176621,12.8590276 L14.2293881,12.8473003 C14.8127519,12.3928659 15.4869916,11.8592719 15.8915354,11.1468361 C16.5804324,9.96530662 16.4104067,8.35572929 15.489923,7.23870022 C14.7365335,6.31810408 13.4642726,5.78451014 12.0102602,5.78451014 C8.59802125,5.78451014 7.68926347,8.35572929 7.68926347,9.69264598 C7.68926347,10.08258 8.01465738,10.4080137 8.40454379,10.4080137 C8.756321,10.3552407 9.11982411,10.0972392 9.13155002,9.70730516 C9.13155002,9.46103103 9.24880909,7.22697288 12.0249176,7.22697288 C12.5056797,7.22697288 13.7134481,7.30613242 14.3876878,8.13584168 C14.9329425,8.79843635 15.0355442,9.75714635 14.6485892,10.4080137 C14.3759619,10.8888346 13.8570905,11.290496 13.3382191,11.6921573 L13.3264932,11.7038847 C13.171125,11.8211581 12.974716,11.964818 12.8076218,12.1055461 C11.8460975,12.9088688 11.2891169,14.1578304 11.2891169,15.4419741 C11.2891169,15.8319081 11.6145108,16.1573418 12.0043972,16.1573418 C12.3942836,16.1573418 12.7196775,15.8319081 12.7196775,15.4419741 C12.722609,14.5976057 13.0861121,13.7796237 13.7369,13.2343025 L13.7369,13.2343025 Z" id="形状"></path>
      <path d="M11.9985343,0 C5.37046537,0 0,5.37405326 0,12 C0,18.6259467 5.37339685,24 11.9985343,24 C18.6236717,24 24,18.6288786 24,12 C24,5.37112143 18.6266032,0 11.9985343,0 Z M12,23.04 C5.90373626,23.04 0.96,18.0962637 0.96,12 C0.96,5.90373626 5.90373626,0.96 12,0.96 C18.0962637,0.96 23.04,5.90373626 23.04,12 C23.04,18.0962637 18.0992967,23.04 12,23.04 Z" id="形状"></path>
    </g>
  </g>
</svg>
