<?xml
  version="1.0" encoding="UTF-8"?>
<svg width="24px" height="24px" viewBox="0 0 24 24" version="1.1" xmlns="http://www.w3.org/2000/svg" xmlns:xlink="http://www.w3.org/1999/xlink">
  <title>tip-icon</title>
  <g id="Easy-Extension" stroke="none" stroke-width="1" fill="none" fill-rule="evenodd">
    <g id="扩展点" transform="translate(-408.000000, -223.000000)" fill-rule="nonzero" fill="#1890FF">
      <g id="Group-9" transform="translate(288.000000, 222.000000)">
        <g id="Group-17" transform="translate(120.000000, 1.000000)">
          <path d="M12,24 C5.372583,24 0,18.627417 0,12 C0,5.372583 5.372583,0 12,0 C18.627417,0 24,5.372583 24,12 C24,18.627417 18.627417,24 12,24 Z M12,23.04 C18.0972236,23.04 23.04,18.0972236 23.04,12 C23.04,5.90277636 18.0972236,0.96 12,0.96 C5.90277636,0.96 0.96,5.90277636 0.96,12 C0.96,18.0972236 5.90277636,23.04 12,23.04 Z" id="Oval-8-Copy"/>
          <path d="M11.1077227,9.42846411 C11.107782,9.01425055 11.4436165,8.67851217 11.85783,8.67857144 C12.2720436,8.67863071 12.607782,9.01446519 12.6077227,9.42867875 L12.606563,17.5335815 C12.6065037,17.9477951 12.2706692,18.2835335 11.8564557,18.2834742 C11.4422421,18.2834149 11.1065037,17.9475804 11.106563,17.5333669 L11.1077227,9.42846411 Z M11.8571429,7.71428571 C11.3837559,7.71428571 11,7.33052979 11,6.85714286 C11,6.38375593 11.3837559,6 11.8571429,6 C12.3305298,6 12.7142857,6.38375593 12.7142857,6.85714286 C12.7142857,7.33052979 12.3305298,7.71428571 11.8571429,7.71428571 Z" id="Combined-Shape"/>
        </g>
      </g>
    </g>
  </g>
</svg>
